<svg width="64" height="64" viewBox="0 0 64 64" fill="none" xmlns="http://www.w3.org/2000/svg">
<path d="M20.1953 6.57031C18.8332 6.31877 18.2566 6.68415 17.3641 7.70279C16.3561 8.94038 16.0012 9.59935 16.7978 10.534L19.0628 12.799C18.8849 13.5235 18.4716 13.7472 17.3641 13.9315C14.9543 14.332 14.3337 14.7794 13.4004 15.6302C11.5097 17.8496 10.6926 19.0881 9.43673 21.2926C7.77488 23.9704 6.94373 25.6404 7.17177 31.4849C7.80267 34.1626 8.27162 35.6535 9.43673 38.2798C9.89158 39.9125 9.98106 40.7677 10.003 42.2434L11.7017 39.9785C13.1606 38.6193 13.8846 38.1944 15.0991 37.7135C16.1065 39.8904 16.8625 41.2643 18.4966 43.9422C20.4166 46.6232 21.5224 48.1247 24.7252 50.737C26.8546 52.5156 27.6063 53.515 34.9175 55.267C37.3119 55.436 38.6131 55.5453 42.2786 55.267C43.2932 55.1858 43.9056 55.1798 45.1098 55.267C47.1325 55.5031 48.0428 55.2322 49.6398 54.7007C50.1495 53.5212 50.5021 52.7955 51.3385 51.3033C53.006 48.1291 53.765 46.3896 54.7359 43.3759C55.5618 39.6214 55.8853 37.2728 55.8684 32.0511C55.2268 28.4081 54.6319 26.4019 52.471 22.9913C50.3971 19.7408 48.6236 18.0104 44.5436 15.0639C41.992 13.6639 40.2199 12.9622 34.9175 12.2327L38.8812 10.534C41.0025 9.40452 41.6686 8.79314 42.8449 7.70279L38.315 5.43786L34.3513 4.30538C32.0744 3.95556 30.8333 4.08599 28.6889 4.87162C26.2543 5.99827 25.2059 7.08736 23.5927 9.40154L20.1953 6.57031Z" stroke="white" stroke-width="5" stroke-linejoin="round"/>
<path d="M25.2246 8.27302C23.8742 9.65743 22.0869 12.1043 22.0869 12.1043C22.0869 12.1043 22.8746 12.2042 23.37 12.3163C24.0705 12.4749 24.4174 12.7403 25.1239 12.8699C26.2409 13.0747 26.961 13.2631 28.0962 13.2294C29.5499 13.1861 30.3184 12.8956 31.7514 12.6472C34.0171 12.2545 35.1585 11.4935 37.2432 10.5232C38.6246 9.88032 39.4268 9.55276 40.7044 8.72267C41.3067 8.33136 42.1996 7.65166 42.1996 7.65166C42.1996 7.65166 40.5819 7.18753 39.5687 6.82136C38.688 6.50308 38.223 6.24941 37.344 5.92637C35.9957 5.43086 35.2609 5.00243 33.8362 4.8193C32.8672 4.69476 32.3074 4.71107 31.3347 4.80127C30.695 4.86058 30.3271 4.88105 29.7101 5.06C28.7346 5.34295 28.2387 5.68345 27.4027 6.26038C26.4495 6.91817 26.0333 7.44396 25.2246 8.27302Z" fill="#497D00" stroke="#5EA500" stroke-linecap="round" stroke-linejoin="round"/>
<path d="M22.493 12.0395C22.493 12.0395 24.9328 11.4126 26.4896 10.9866C28.9875 10.3031 30.3573 9.81087 32.8584 9.13937C34.5717 8.67939 35.5094 8.30072 37.2612 8.02171C39.0131 7.7427 41.7934 7.71633 41.7934 7.71633" stroke="#5EA500" stroke-linecap="round" stroke-linejoin="round"/>
<path d="M23.1044 13.6991L21.0401 10.4142L19.3688 9.14755" stroke="#471F00" stroke-width="5" stroke-linecap="round" stroke-linejoin="round"/>
<path d="M27.1176 12.1066C25.6699 11.9682 24.3529 10.7537 23.4237 11.8725C23.0992 12.2632 23.367 12.3619 22.9613 12.6674C22.4481 13.0538 21.9183 12.8241 21.2935 12.9738C20.9443 13.0575 20.2279 13.431 20.0102 13.7166C19.1114 14.8959 18.9425 15.4392 18.1605 16.896C16.1335 20.6719 15.5244 23.1553 15.0217 27.4112C14.5287 31.5856 14.3013 34.1552 15.5769 38.1604C16.7667 41.8964 18.1788 43.8197 20.8028 46.7331C23.8447 50.1106 26.046 51.8174 30.263 53.5137C33.2764 54.7259 35.1456 55.2649 38.3936 55.2652C40.1892 55.2653 40.8822 55.0108 42.9344 55.1408C44.9865 55.2708 47.0387 55.4009 48.296 55.0684C49.5533 54.736 49.5793 54.3256 50.0417 53.5307C50.5041 52.7359 50.9926 51.5306 52.3799 49.146C53.7673 46.7615 54.9482 43.3909 55.4667 39.4517C55.9296 35.9342 55.9692 33.8377 55.2179 30.3702C53.9446 24.493 52.0678 20.8984 47.4051 17.1008C43.1111 13.6035 39.6404 12.5905 34.1209 12.1382C31.381 11.9138 29.8542 12.3681 27.1176 12.1066Z" fill="#F0B100"/>
<path d="M22.0426 23.0368C22.6446 19.0639 21.3456 12.1528 21.3456 12.1528L20.9612 11.7164C20.9612 11.7164 19.7288 13.0159 18.779 13.6385C17.5776 14.426 16.624 14.3343 15.3915 15.0722C13.8241 16.0106 13.0438 16.75 11.8644 18.1452C10.2954 20.0012 9.68746 21.3157 8.88856 23.611C8.25067 25.4438 7.98464 26.5389 7.87946 28.4767C7.77465 30.4078 7.9409 31.5165 8.35178 33.4062C8.73614 35.174 9.47442 35.8887 9.83085 37.7963C10.1273 39.3829 9.98122 41.9266 9.98122 41.9266C9.98122 41.9266 11.2002 40.1206 12.2154 39.1836C13.3956 38.0943 14.4809 38.025 15.6549 36.929C18.0752 34.6697 19.2653 33.0576 20.3692 29.9362C21.2936 27.3223 21.6272 25.778 22.0426 23.0368Z" fill="#497D00" stroke="#5EA500" stroke-linecap="round" stroke-linejoin="round"/>
<path d="M21.0631 12.2531C21.0631 12.2531 18.9056 14.4373 17.7761 16.4595C16.7854 18.2331 16.4268 19.3412 15.8223 21.2807C15.1937 23.2974 14.9979 25.1231 14.4437 27.1615C13.7897 29.5675 12.583 32.5508 11.8254 34.9261C10.7244 38.3782 10.0072 41.5161 10.0072 41.5161" stroke="#5EA500" stroke-linecap="round" stroke-linejoin="round"/>
</svg>
